<svg xmlns="http://www.w3.org/2000/svg" viewBox="0 0 36 32">
    <path fill="whitesmoke" d="M29 1v30H6V1h23m1-1H5v32h25V0z"></path>
    <circle fill="whitesmoke" cx="8" cy="3" r="1"></circle>
    <circle fill="whitesmoke" cx="27" cy="3" r="1"></circle>
    <circle fill="whitesmoke" cx="27" cy="29" r="1"></circle>
    <circle fill="whitesmoke" cx="18" cy="13" r="2"></circle>
    <path fill="whitesmoke"
        d="M18 4s-.1 0 0 0c-5 0-9 4.1-9 9v.1c0 2.1.8 4.1 2 5.6.2-.2.5-.5.8-.7-1.1-1.4-1.8-3.1-1.8-5 0-4.4 3.6-8 8-8s8 3.6 8 8-3.6 8-8 8c-.3 0-.6 0-.9-.1-.1.3-.1.7-.2 1 .4 0 .8.1 1.1.1h.1c4.9 0 8.9-4.1 8.9-9v-.1C27 8 22.9 4 18 4zm-1.4 18.9c-.3 1.2-.8 2.3-1.3 3.1-.7 1.2-2 2-3.4 2-.7 0-1.4-.2-2-.6-1.8-1.2-2.4-3.7-1.3-5.4.4-.8 1-1.7 1.7-2.5C8.9 18 8 16.1 8 14.1V14H7v16h11v-7c-.5 0-.9 0-1.4-.1zm-1-5.4c1.3.8.3 5.4-1.2 8-.7 1.4-2.7 2-4 1.1s-1.8-2.9-1-4.1c1.3-2.7 4.9-5.7 6.2-5z">
    </path>
</svg>