<svg xmlns="http://www.w3.org/2000/svg" baseProfile="tiny" viewBox="0 0 36 32">
    <circle fill="whitesmoke" cx="9.5" cy="3.5" r="1.5"></circle>
    <circle fill="whitesmoke" cx="9.5" cy="7.5" r="1.5"></circle>
    <path fill="whitesmoke"
        d="M5 2h1v28H5zm12.6 18.2c0 .4-.4.6-.7.4l-1.3-.6.6 1.3c.2.3-.1.7-.4.7h-1.4c-.4 0-.6-.4-.4-.7l.6-1.3-1.3.6c-.3.2-.7-.1-.7-.4v-1.4c0-.4.4-.6.7-.4l1.3.6-.6-1.3c-.2-.3.1-.7.4-.7h1.4c.4 0 .6.4.4.7l-.6 1.3 1.3-.6c.3-.2.7.1.7.4v1.4zm12 .8c0 .5-.4 1-.9 1h-.1c-.5 0-1-.4-1-.9V21c0-.5.4-1 .9-1h.1c.5 0 1 .4 1 .9v.1zm0-3c0 .5-.4 1-.9 1h-.1c-.5 0-1-.4-1-.9V18c0-.5.4-1 .9-1h.1c.5 0 1 .4 1 .9v.1zm3 3c0 .5-.4 1-.9 1h-.1c-.5 0-1-.4-1-.9V21c0-.5.4-1 .9-1h.1c.5 0 1 .4 1 .9v.1zm0-3c0 .5-.4 1-.9 1h-.1c-.5 0-1-.4-1-.9V18c0-.5.4-1 .9-1h.1c.5 0 1 .4 1 .9v.1zm-2-4h-1c-2 0-3.1 1.1-4 2h-6c-.7-.7-2-2-4-2h-1c-.5 0-1.2.2-1.6.5V0H3v32h10v-.1c2.7-.5 3.6-6.9 3.6-6.9.5 1 1.5 1.5 2.5 1.5s2-.5 2.5-1.5h2c.5 1 1.5 1.5 2.5 1.5s2-.5 2.5-1.5c0 0 1 7 4 7 0 0 3 0 3-5s-1-13-5-13zM4 31V1h8v14.5l-.4.6c-1.6 3.1-2 7.5-2 10.9 0 2.1.5 3.3 1.1 4H4zm28.6 0c-1.5 0-2.7-3.7-3-6.1-.1-.4-.4-.8-.8-.8h-.2c-.4 0-.7.2-.9.6-.3.6-.9.9-1.6.9s-1.3-.4-1.6-.9c-.1-.5-.5-.7-.9-.7h-2c-.4 0-.7.2-.9.6-.3.6-.9.9-1.6.9s-1.3-.4-1.6-.9c-.1-.4-.5-.6-.9-.6h-.2c-.4.1-.8.4-.8.8-.3 2.3-1.3 5.5-2.6 6.1-.1.1-.2.1-.4.1s-.4-.1-.6-.2-.4-.3-.5-.4c-.6-.7-.9-1.8-.9-3.3 0-2.2.2-6.1 1.4-9.2.2-.4.3-.8.5-1.2a3.04 3.04 0 0 1 .5-.7c.1-.1.2-.3.3-.3.3-.3.9-.5 1.3-.5h1c1.6 0 2.7 1.1 3.3 1.7.2.2.4.3.7.3h6c.3 0 .5-.1.7-.3.8-.8 1.7-1.7 3.3-1.7h1c2.7 0 4 6.2 4 12 0 3.6-1.8 3.8-2 3.8z">
    </path>
</svg>