<svg xmlns="http://www.w3.org/2000/svg" viewBox="0 0 32 32">
    <path fill="whitesmoke"
        d="M29 10H3c-1.7 0-3 1.3-3 3v16c0 1.7 1.3 3 3 3h26c1.7 0 3-1.3 3-3V13c0-1.7-1.3-3-3-3zm2 19c0 1.1-.9 2-2 2H3c-1.1 0-2-.9-2-2V18h30v11zm0-13H1v-3c0-1.1.9-2 2-2h26c1.1 0 2 .9 2 2v3zM11.5 9H20c2.2 0 4-1.8 4-4s-1.8-4-4-4-4 1.8-4 4v-.5A4.48 4.48 0 0 0 11.5 0 4.48 4.48 0 0 0 7 4.5 4.48 4.48 0 0 0 11.5 9zM17 5c0-1.7 1.3-3 3-3s3 1.3 3 3-1.3 3-3 3h-3V5zm-5.5-4C13.4 1 15 2.6 15 4.5V8h-3.5C9.6 8 8 6.4 8 4.5S9.6 1 11.5 1zM5 27h8a.94.94 0 0 0 1-1 .94.94 0 0 0-1-1H5a.94.94 0 0 0-1 1 .94.94 0 0 0 1 1z">
    </path>
</svg>