<svg xmlns="http://www.w3.org/2000/svg" width="36" height="36" viewBox="0 0 1180 1180">
    <path
        d="M462 25.2c5.5-2.6 10.7-9.7 17.4-7c7.7 5.3 14.2 12.2 19.6 19.8c2.5 8.7-6.1 14.1-10.9 19.7 c-62 61.2-123.8 122.8-185.6 184.2c-5.9-12.4-15.9-22-28.4-27.6c13.4-31.8 19.7-69.9 49.3-91.5C369.1 89.6 415.8 57.8 462 25.2z">
    </path>
    <path
        d="M680.9 38.2c6.4-8.5 12.8-20 24.1-22.2c50.8 33.3 99.7 69.7 149.6 104.4c31.7 21.6 38.9 61.4 52.7 94.6 c-12.7 5.8-23.1 14.9-29.8 27.1c-62-61.4-123.8-123.1-186-184.5C686.9 52 678.2 46.8 680.9 38.2z">
    </path>
    <path d="M920.8 180.3c44.1 1 80 44.1 72.9 87.8c-16.6-14.6-33-29.3-49.3-44.2C931 213 927.6 195.3 920.8 180.3z">
    </path>
    <path
        d="M186.2 265.6c-4.4-40.7 28.3-78.9 68.7-82.5c-5.7 13.6-7.3 30.5-19.8 39.9C218.7 237.2 202.6 251.6 186.2 265.6z">
    </path>
    <path
        d="M246.7 245.3c10.7-11.8 32.8-2.9 32.4 12.9c1.5 14.5-16.6 24.5-28.5 16.7C240.1 269.5 238.4 253.6 246.7 245.3z">
    </path>
    <path
        d="M286.6 290.1c17.6-16.3 35.2-32.6 52.6-49c9.5 18.1 21.2 34.8 35 49.9c-25.9 26.3-51.8 52.5-77.6 79 c-11.3-10.4-23.4-19.8-36.2-28.4C268.5 324.2 270.6 302.7 286.6 290.1z">
    </path>
    <path
        d="M804.3 292.7c14.4-14.5 25.9-31.4 36.2-48.9c17.2 16 34.3 32 51.9 47.5c16.3 11.9 18.8 33.2 26.9 50.3 c-13 8.6-25 18.5-36.1 29.5C856.6 345.2 831.1 318.3 804.3 292.7z">
    </path>
    <path d="M903.3 268.5c-10.8-15.6 10.4-36.5 26.1-26c13 7.2 9.4 23.5 2.1 33.5C921.7 277.4 908.6 279.5 903.3 268.5z">
    </path>
    <path
        d="M32.2 459.8c61.5-61.3 123.1-122.7 184.3-184.4c7.6 11.7 17.9 21.2 30.3 27.6c-9 21-15 43.2-25.5 63.5 c-13.7 26.2-41.4 39.4-64 56.5c-37.5 25.5-73.6 53.4-112.2 77.1c-10.6-2.8-17.4-12.9-23.8-21.1C19.3 470.5 27.7 465.4 32.2 459.8z">
    </path>
    <path
        d="M933.2 302.5c12.7-5.7 22.9-15.2 30.1-27.1c63.1 63.6 126.7 126.7 189.9 190.1c14.3 13-6.5 29.8-18.5 34.7 c-38.6-24-74.7-51.9-112.4-77.5c-21.9-16.1-47.8-29.2-61.9-53.4C948.1 348.5 942.4 324.6 933.2 302.5z">
    </path>
    <path
        d="M315.3 391c27.1-26.4 53.6-53.4 80.4-80.1c8.1 5.6 16.2 11.3 24.2 17.2c-29.4 29.6-58.9 59.1-88.5 88.5 C326.1 408 320.7 399.5 315.3 391z">
    </path>
    <path
        d="M758.5 327.1c8.6-5.8 17.2-11.7 25.8-17.7c26.9 27.6 54.5 54.4 81.5 81.9c-5.8 8.4-11.6 16.9-17.3 25.4 C818.2 387 788.7 356.7 758.5 327.1z">
    </path>
    <path
        d="M440.9 341.6c24.9 15 49.2 30.9 74.6 45c45.3 24.7 103.3 23.5 147.9-2.4c23.7-13.9 46.5-29.3 69.9-43.7 c32.9 33.1 66.2 66 99.1 99.2c-23 41-56 78.9-62 127c-5.8 40.3 7.9 80.8 30.7 113.7c35.5 52.5 61.7 115.2 118.2 149.2 c-6 14.9-10.6 30.4-17.7 44.7c-18.7 19.7-40.1 36.7-59.8 55.5c-15.6-27.5-35.4-53.3-61.9-71.1c-34.6-23.3-70.7-44.5-105.8-67 c-34.2-21.6-76.9-30.7-116.7-21.5c-37.5 8-67.8 32.8-100.1 51.9c-31.2 20.7-65.8 37.7-91.1 66.1c-11.9 12.8-21 27.8-29.7 43 c-19-18-39.3-34.6-57.8-53.1c-9.3-14.4-13-31.7-19.9-47.4c56.2-33.6 82.5-95.7 117.2-148.1c20.7-30.7 35.8-66.8 32.8-104.6 c-1.2-53.1-37.8-94.6-63-138.4C377.4 406.9 409.3 374.4 440.9 341.6z">
    </path>
    <path
        d="M323.4 452.7c8.2 15.5 20.4 29.3 26.2 45.8c0.7 58 0.9 116.2-0.1 174.3c-6.8 15.7-17.6 29.3-26.3 44 C323.4 628.7 323.1 540.7 323.4 452.7z">
    </path>
    <path
        d="M830.3 498.4c7-15.7 17.6-29.4 26.1-44.3c0.3 87.6 0.1 175.2 0.1 262.7c-9-14.2-18-28.4-26.8-42.6 C830.2 615.5 828.9 556.9 830.3 498.4z">
    </path>
    <path
        d="M24.3 693.5c7-7.7 17.7-23.7 28.8-12.7c47.3 32.8 94.4 66 141.5 99.2c31 21.8 38.5 61.1 52 94.1 c-12.8 5.7-22.9 15.3-30 27.3c-62.1-62.9-124.9-125-187.2-187.5C24.1 709 16.6 700 24.3 693.5z">
    </path>
    <path
        d="M985.3 780c49.9-34.3 98.4-70.9 149.4-103.5c10.9 4 24 15.2 23.6 27.6c-7.3 10.7-17.5 18.9-26.4 28.2 c-56.2 56.3-112.7 112.4-168.7 168.9c-7.4-11.7-17.7-20.9-30.1-27C947.1 841.4 953.5 801.4 985.3 780z">
    </path>
    <path
        d="M509.2 820.4c24.4-14.7 51.2-27.7 80.4-26.9c29.7-1.2 57.1 12.2 82.2 26.7c7.6 20.9 5 52.6-21.1 58.1 c-32.4 2-65.1-0.2-97.6 0.8c-12.5-0.4-27.2 2.3-36.8-7.7C501.6 858.5 507.2 837.3 509.2 820.4z">
    </path>
    <path d="M902.1 910.3c4.6-12.4 18.8-11.7 29.5-9.6c6.7 10 10.8 26.2-2.1 33.2C914.6 944.3 893.7 926.5 902.1 910.3z">
    </path>
    <path d="M246.7 904.5c17-18.2 46 11.1 26.4 27.2C256.3 948.9 229.3 921.1 246.7 904.5z"></path>
    <path
        d="M184.5 908.1c17.3 15.1 34.2 30.4 51.7 45.3c11.8 8.8 13.6 24.5 18.6 37.4C213.5 987.8 180.9 949.3 184.5 908.1z">
    </path>
    <path d="M944.9 953.4c16.6-15 33.1-30.1 50-44.9c4.9 41.3-29.2 79.3-70 82.2C930.4 977.8 933.3 962.6 944.9 953.4z">
    </path>
    <path
        d="M686.3 1124.4c63.6-63.5 127.6-126.7 191.3-190.1c5.7 12.6 15.4 22.4 28.1 28c-8.7 21-15 43.1-25.2 63.5 c-13.6 25.9-41 39-63.4 55.9c-37.7 25.5-73.8 53.6-112.6 77.6C692 1154.9 671.1 1137.3 686.3 1124.4z">
    </path>
    <path
        d="M272.6 961.6c12.7-5.7 23.1-14.9 29.8-27.1c64.3 64.5 128.9 128.6 193 193.2c11.8 14.3-10.1 26.8-20 34.2 c-40.7-28.5-81.2-57.2-121.9-85.7c-20.5-14.3-43.3-27.8-55.4-50.6C287.3 1005.2 281.4 982.8 272.6 961.6z">
    </path>
</svg>