<svg xmlns="http://www.w3.org/2000/svg" baseProfile="tiny" viewBox="0 0 32 32">
    <path d="M29 1.4C28 5 26.7 7 25.5 7 24 7 23 6 22.1 4.4 20.8 2.1 20 1 17.9 1.5c-2.4.6-2.8 2.7-2.9 4.5-4.3.4-7.8 5.6-8 12v.5C7 25.4 10.8 31 15.5 31S24 25.4 24 18.5V18c-.2-6.4-3.6-11.6-8-12 0-1.6.3-3.1 2.1-3.5C20 2 20.7 4.1 21.3 5c.7 1 1.7 3 4.2 3C27 8 29 6 30 1.6l-1-.2zM16 11v3h-1v-3h1zm-1-4v3s-1 0-1 1v3c0 1 1 1 1 1v2H8.1c.4-5.4 3.3-9.6 6.9-10zm8 11.5c0 6.3-3.4 11.5-7.5 11.5S8 24.8 8 18.5V18h15v.5zm-.1-1.5H16v-2s1 0 1-1v-3c0-1-1-1-1-1V7c3.6.4 6.5 4.6 6.9 10z"></path></svg>