<svg
        width="20"
        height="20"
        version="1.1"
        xmlns="http://www.w3.org/2000/svg"
        viewBox="0 0 300 300"
>
    <g fill="#d10000">
        <circle cx="133.3" cy="79.1" r="7.7" />
        <circle cx="51.7" cy="160.7" r="7.7" />
        <circle cx="242.3" cy="133.2" r="7.7" />
        <path d="M56.3,93.6L149.8,0c-1.1,0-2.1,0-3.2,0C94.2,0,48.3,27.5,22.3,68.8l24.8,24.8C49.7,96.1,53.7,96.1,56.3,93.6 z M46.2,80.6c-3-3-3-8,0-11s8-3,11,0c3,3,3,8,0,11C54.1,83.6,49.2,83.6,46.2,80.6z M61.1,65.7c-3-3-3-8,0-11c3-3,8-3,11,0 s3,8,0,11C69,68.7,64.1,68.7,61.1,65.7z M75.6,51.1c-3-3-3-8,0-11c3-3,8-3,11,0c3,3,3,8,0,11S78.7,54.1,75.6,51.1z M237.5,200.6l-92.7,92.7c0.6,0,1.2,0,1.9,0c52.3,0,98.2-27.4,124.1-68.6l-24.2-24.2 C244.1,198,240,198,237.5,200.6z M247.3,213.4c3,3,3,8,0,11s-8,3-11,0c-3-3-3-8,0-11C239.4,210.4,244.3,210.4,247.3,213.4z M232.4,228.3c3,3,3,8,0,11c-3,3-8,3-11,0c-3-3-3-8,0-11S229.4,225.3,232.4,228.3z M217.9,242.9c3,3,3,8,0,11c-3,3-8,3-11,0 s-3-8,0-11S214.8,239.8,217.9,242.9z M190.9,173.9c0-1.7-0.7-3.3-1.9-4.6l-37.2-37.2c-3.4-3.4-5.2-7.9-5.2-12.7c0-4.8,1.9-9.3,5.3-12.7l79.8-79.7 c-19.3-13.7-42-22.9-66.7-26L64.4,101.7c-7,7-18.3,7-25.3,0L16.4,79.1C5.9,99.3,0,122.3,0,146.7c0,17.3,3,33.8,8.5,49.2 l26.2-26.2c-3.8-7.2-2.6-16.4,3.4-22.4c7.5-7.5,19.6-7.5,27.1,0c7.5,7.5,7.5,19.6,0,27.1c-6.1,6.1-15.2,7.2-22.4,3.4l-29.7,29.7 c6.6,14.5,15.4,27.6,26.1,39.1l80-79.9c1.2-1.2,1.9-2.8,1.9-4.6c0-1.7-0.7-3.3-1.9-4.6l-23.6-23.6c-3.4-3.4-5.2-7.9-5.2-12.7 c0-4.8,1.9-9.3,5.3-12.7L116.3,88c-3.8-7.2-2.6-16.4,3.4-22.4c7.5-7.5,19.6-7.5,27.1,0c7.5,7.5,7.5,19.6,0,27.1 c-6.1,6.1-15.2,7.2-22.4,3.4l-20.6,20.5c-1.2,1.2-1.9,2.8-1.9,4.6c0,1.7,0.7,3.3,1.9,4.6l23.6,23.6c3.4,3.4,5.2,7.9,5.2,12.7 c0,4.8-1.9,9.3-5.3,12.7l-80,79.9c11.6,10.6,24.9,19.5,39.4,26L189,178.4C190.2,177.2,190.9,175.6,190.9,173.9z M254.7,192.5l22,22c10.6-20.3,16.6-43.3,16.6-67.8c0-16.9-2.9-33.1-8.1-48.2l-25.9,25.9 c3.8,7.2,2.6,16.4-3.4,22.4c-7.5,7.5-19.6,7.5-27.1,0c-7.5-7.5-7.5-19.6,0-27.1c6.1-6.1,15.2-7.2,22.4-3.4l29.4-29.4 c-9.2-20.5-22.9-38.4-39.8-52.6L160,114.9c-1.2,1.2-1.9,2.8-1.9,4.6c0,1.7,0.7,3.3,1.9,4.6l37.2,37.2c3.4,3.4,5.2,7.9,5.2,12.7 c0,4.8-1.9,9.3-5.3,12.7l-98.8,98.6c10,3.5,20.4,5.9,31.2,7.2l99.8-99.8C236.4,185.5,247.7,185.5,254.7,192.5z" />
    </g>
</svg>