<svg xmlns="http://www.w3.org/2000/svg" viewBox="0 0 36 32"><path d="M0,3h32v5h-1V4H1v17h20v1H0" fill-rule="evenodd"></path><path d="M35 10v21H23V10h12m1-1H22v23h14V9z"></path><path d="M8 24h13v2H8v-2zm21-4c-2.7 0-5 2.2-5 4.9v.1c0 2.7 2.2 5 4.9 5h.1c2.7 0 5-2.2 5-4.9V25c0-2.7-2.2-5-4.9-5H29zm0 9c-2.3 0-4-1.7-4-4s1.7-4 4-4 4 1.7 4 4-1.7 4-4 4zm0-17c-1.7 0-3 1.3-3 3s1.3 3 3 3 3-1.3 3-3-1.3-3-3-3zm0 5c-1 .1-1.9-.7-2-1.7v-.2c-.1-1 .7-1.9 1.7-2h.2c1-.1 1.9.7 2 1.7v.2c.1 1-.7 1.9-1.7 2H29z" fill-rule="evenodd"></path></svg>